<svg xmlns="http://www.w3.org/2000/svg" xml:space="preserve" fill="#1F2937" stroke="#1F2937" viewBox="-10 -10 120 120"><path fill="rgb(2 132 199)" fill-rule="evenodd" d="M8.264 12.895h83.471v59.668H8.264z" clip-rule="evenodd"/><path d="M91.734 73.921H8.264c-.75 0-1.359-.608-1.359-1.358V12.895c0-.75.609-1.359 1.359-1.359h83.471c.752 0 1.359.608 1.359 1.359v59.668c0 .75-.608 1.358-1.36 1.358zM9.623 71.204h80.754V14.253H9.623v56.951z"/><path fill="#F3F4F6" fill-rule="evenodd" d="M33.93 80.07h32.14l-2.804-7.507H36.729z" clip-rule="evenodd"/><path d="M66.07 81.428H33.93a1.358 1.358 0 0 1-1.273-1.833l2.799-7.507a1.361 1.361 0 0 1 1.273-.884h26.537a1.36 1.36 0 0 1 1.273.883l2.803 7.507a1.358 1.358 0 0 1-1.272 1.834zm-30.183-2.717h28.225l-1.789-4.791h-24.65l-1.786 4.791z"/><path fill="rgb(2 132 199)" fill-rule="evenodd" d="M25.947 80.07h48.1v7.036h-48.1z" clip-rule="evenodd"/><path d="M74.047 88.464h-48.1a1.36 1.36 0 0 1-1.359-1.359V80.07c0-.75.609-1.358 1.359-1.358h48.1c.752 0 1.359.608 1.359 1.358v7.036c0 .75-.607 1.358-1.359 1.358zm-46.742-2.717H72.69v-4.319H27.305v4.319z"/><path fill="#F3F4F6" fill-rule="evenodd" d="M8.264 21.58h83.471v42.177H8.264z" clip-rule="evenodd"/><path d="M91.734 65.115H8.264c-.75 0-1.359-.608-1.359-1.358V21.58c0-.75.609-1.359 1.359-1.359h83.471c.752 0 1.359.608 1.359 1.359v42.177c0 .75-.608 1.358-1.36 1.358zM9.623 62.398h80.754v-39.46H9.623v39.46z"/><path fill="#15803D" fill-rule="evenodd" d="M20.205 30.361c-.293 2.01-.188 7.709-.072 9.912.289 5.463 3.111 9.863 6.68 13.278.693.664 4.676 4.044 5.781 4.131 2.01.149 8.295-5.863 10.324-9.475 2.529-4.501 2.973-11.436 2.338-17.751-.813-.235-11.57-2.549-12.461-2.549l-12.59 2.454z" clip-rule="evenodd"/><path d="M32.668 59.044c-.059 0-.119-.002-.176-.006-.586-.046-1.443-.335-3.773-2.127-1.209-.932-2.43-1.979-2.846-2.378-4.436-4.245-6.824-9.018-7.098-14.188-.107-2.079-.238-7.96.084-10.18l.141-.953 13.664-2.662h.131c1.197 0 12.225 2.424 12.838 2.603l.883.256.092.913c.449 4.465.721 12.813-2.506 18.552-1.881 3.349-8.362 10.17-11.434 10.17zM21.457 31.501c-.152 2.343-.072 6.71.033 8.701.234 4.456 2.342 8.617 6.262 12.368.949.91 4.047 3.404 4.963 3.748.393-.088 1.799-.773 4.271-3.11 2.025-1.913 3.889-4.137 4.748-5.665 1.992-3.547 2.803-9.337 2.258-15.992-2.611-.592-9.861-2.121-11.119-2.273l-11.416 2.223z"/><path fill="#F3F4F6" d="M30.732 46.826c-.4 0-.779-.175-1.037-.48l-3.707-4.376a1.358 1.358 0 1 1 2.072-1.756l2.637 3.111 6.453-8.15a1.358 1.358 0 0 1 2.131 1.686l-7.484 9.45a1.358 1.358 0 0 1-1.043.515h-.022z"/><path fill="rgb(2 132 199)" fill-rule="evenodd" d="M54.096 28.385H80.16v8.561H54.096z" clip-rule="evenodd"/><path d="M54.096 40.17H80.16v2.717H54.096zm0 6.593H72.6v2.717H54.096zm0 6.656h18.615v2.717H54.096zm20.881-6.656h3.793v2.717h-3.793z"/><path fill="#F3F4F6" d="M83.17 66.63h3.266v2.717H83.17z"/></svg>